<?xml version="1.0" standalone="no"?>
<!DOCTYPE svg PUBLIC "-//W3C//DTD SVG 20010904//EN" "http://www.w3.org/TR/2001/REC-SVG-20010904/DTD/svg10.dtd">
<!-- Created using Krita: https://krita.org -->
<svg xmlns="http://www.w3.org/2000/svg" 
    xmlns:xlink="http://www.w3.org/1999/xlink"
    xmlns:krita="http://krita.org/namespaces/svg/krita"
    xmlns:sodipodi="http://sodipodi.sourceforge.net/DTD/sodipodi-0.dtd"
    width="480pt"
    height="480pt"
    viewBox="0 0 480 480">
<defs/>
<path id="shape0" transform="translate(15.8400079397477, 132.959990266364)" fill="#000000" fill-rule="evenodd" stroke-opacity="0" stroke="#000000" stroke-width="0" stroke-linecap="square" stroke-linejoin="bevel" d="M55.2458 199.105L49.5044 175.021L37.7516 198.744L23.9547 65.2243L80.0452 71.8476L33.5116 27.4029L161.754 29.0241L162.202 63.293L70.2961 62.5663L9.93594 32.1664L49.7629 68.5164L75.522 171.528L104.417 171.39L115.676 128.197L86.0898 101.656L161.188 112.831L163.87 194.635L142.861 161.109L130.209 198.788L55.2458 199.105M177.5 198.635C207.819 143.52 218.963 90.3939 175.47 28.568L219.09 28.568L225.191 59.982L265.207 59.543L273.338 28.8005L315.497 28.2519C277.698 86.319 284.106 140.568 315.271 198.635L266.903 198.635L266.982 106.534L245.954 198.637L222.346 107.079L225.868 198.635L177.5 198.635M343.898 198.258L325.002 190.003L321.201 45.8683L339.757 28.7059L434.899 28.0737L435.064 64.4559L450.495 64.9071L450.495 90.3869L409.046 90.2989L409.046 67.9482L368.011 67.9482L369.797 170.249L410.832 170.249L410.832 147.898L0 0L1.6924 173.532L436.969 170.138L436.968 198.258L343.898 198.258" sodipodi:nodetypes="ccccccccccccccccccccccccccccccccccccccccccccccccccccc"/>
</svg>
